<svg id="bezel" xmlns="http://www.w3.org/2000/svg" xmlns:xlink="http://www.w3.org/1999/xlink" viewBox="0 0 1374 1052"><defs><style>.cls-1{fill:url(#linear-gradient);}.cls-2{fill:url(#linear-gradient-2);}.cls-3{fill:url(#linear-gradient-3);}.cls-4{fill:url(#linear-gradient-4);}.cls-5{fill:url(#linear-gradient-5);}.cls-6{fill:url(#linear-gradient-6);}.cls-7{fill:url(#linear-gradient-7);}.cls-8{fill:url(#linear-gradient-8);}.cls-9{fill:url(#linear-gradient-9);}.cls-10{fill:url(#linear-gradient-10);}.cls-11{fill:url(#linear-gradient-11);}</style><linearGradient id="linear-gradient" x1="199.56" y1="478.05" x2="427.72" y2="126.72" gradientUnits="userSpaceOnUse"><stop offset="0" stop-color="#1a1a1a"/><stop offset="0.94" stop-color="#242424"/><stop offset="0.97" stop-color="#2d2d2d"/><stop offset="1" stop-color="#666"/></linearGradient><linearGradient id="linear-gradient-2" x1="199.44" y1="601.56" x2="427.84" y2="953.26" xlink:href="#linear-gradient"/><linearGradient id="linear-gradient-3" x1="488.62" y1="865.19" x2="786.59" y2="1196.12" gradientUnits="userSpaceOnUse"><stop offset="0" stop-color="#666"/><stop offset="0.03" stop-color="#2d2d2d"/><stop offset="0.06" stop-color="#242424"/><stop offset="1" stop-color="#1a1a1a"/></linearGradient><linearGradient id="linear-gradient-4" x1="1133.41" y1="1196.12" x2="1431.38" y2="865.19" xlink:href="#linear-gradient"/><linearGradient id="linear-gradient-5" x1="1494.02" y1="957.68" x2="1718.28" y2="598.79" xlink:href="#linear-gradient-3"/><linearGradient id="linear-gradient-6" x1="1493.81" y1="122.51" x2="1718.49" y2="482.08" xlink:href="#linear-gradient-3"/><linearGradient id="linear-gradient-7" x1="1133.56" y1="-116.19" x2="1431.52" y2="214.73" xlink:href="#linear-gradient"/><linearGradient id="linear-gradient-8" x1="488.2" y1="214.49" x2="785.72" y2="-115.94" xlink:href="#linear-gradient-3"/><linearGradient id="linear-gradient-9" x1="355.86" y1="1144.16" x2="1564.14" y2="-64.11" gradientUnits="userSpaceOnUse"><stop offset="0" stop-color="#1a1a1a"/><stop offset="0.18" stop-color="#4d4d4d"/><stop offset="0.36" stop-color="#1a1a1a"/><stop offset="0.63" stop-color="#1a1a1a"/><stop offset="0.66" stop-color="#2f2f2f"/><stop offset="0.7" stop-color="#404040"/><stop offset="0.74" stop-color="#4a4a4a"/><stop offset="0.8" stop-color="#4d4d4d"/><stop offset="1" stop-color="#1a1a1a"/></linearGradient><linearGradient id="linear-gradient-10" x1="959.5" y1="1027.91" x2="959.5" y2="49.91" gradientUnits="userSpaceOnUse"><stop offset="0" stop-color="#4d4d4d"/><stop offset="1" stop-color="#333"/></linearGradient><linearGradient id="linear-gradient-11" x1="960" y1="1066" x2="960" y2="14" gradientUnits="userSpaceOnUse"><stop offset="0.19" stop-color="#1a1a1a"/><stop offset="0.86" stop-color="#1a1a1a"/><stop offset="1" stop-color="#333"/></linearGradient></defs><title>bezel</title><g id="bezel-2" data-name="bezel"><path id="left_top_bezel" data-name="left top bezel" class="cls-1" d="M348,540q0-218.11,20.71-436.72A8.09,8.09,0,0,1,371,97.64L295,40.53V540Z" transform="translate(-273 -14)"/><path id="left_bottom_bezel" data-name="left bottom bezel" class="cls-2" d="M348,539.5H295v500l76.11-57.07a8.1,8.1,0,0,1-2.4-5.76C354.9,831.47,348,685.07,348,539.5Z" transform="translate(-273 -14)"/><path id="bottom_left_bezel" data-name="bottom left bezel" class="cls-3" d="M960.5,999.89q-291.81,0-583.79-15.1a7.94,7.94,0,0,1-5.66-2.38L295,1039.53H960.5Z" transform="translate(-273 -14)"/><path id="bottom_right_bezel" data-name="bottom right bezel" class="cls-4" d="M959.5,1039.53H1625l-76-57.17a7.91,7.91,0,0,1-5.7,2.43q-291.81,15.13-583.79,15.1Z" transform="translate(-273 -14)"/><path id="right_bottom_bezel" data-name="right bottom bezel" class="cls-5" d="M1572.58,540.5q0,218.19-21.29,436.2a8.11,8.11,0,0,1-2.34,5.71l76,57.12v-499Z" transform="translate(-273 -14)"/><g id="right_top_bezel" data-name="right top bezel"><path class="cls-6" d="M1572.58,540.5H1625v-500l-76,57.1a8.08,8.08,0,0,1,2.32,5.68Q1572.58,322,1572.58,540.5Z" transform="translate(-273 -14)"/></g><g id="top_right_bezel" data-name="top right bezel"><path class="cls-7" d="M959.5,40.53V79.58c194.32,0,389.58,5.21,583.79,15.64a7.94,7.94,0,0,1,5.68,2.41l76-57.1Z" transform="translate(-273 -14)"/></g><path id="top_left_bezel" data-name="top left bezel" class="cls-8" d="M959.5,40.53H295l76,57.1a7.94,7.94,0,0,1,5.68-2.41Q668.19,79.61,959.5,79.58Z" transform="translate(-273 -14)"/></g><g id="frame"><path class="cls-9" d="M1639,14.06H281a8,8,0,0,0-8,8V1058a8,8,0,0,0,8,8H1639a8,8,0,0,0,8-8V22.06A8,8,0,0,0,1639,14.06ZM1608,1014a12,12,0,0,1-12,12H323a12,12,0,0,1-12-12V64.06a12,12,0,0,1,12-12H1596a12,12,0,0,1,12,12Z" transform="translate(-273 -14)"/></g><g id="frame_inner_edge" data-name="frame inner edge"><path class="cls-10" d="M1595.2,51.91c7.6,0,13,5.4,13,12v950a12,12,0,0,1-12,12H322.8c-6.6,0-12-5.4-12-13V62.9c0-5.59,5.4-11,11-11H1595.2m0-2H321.8c-6.68,0-13,6.31-13,13v950c0,8.55,6,15,14,15H1596.2a14,14,0,0,0,14-14V63.9c0-8-6.45-14-15-14Z" transform="translate(-273 -14)"/></g><g id="frame_outer_bevel" data-name="frame outer bevel"><path class="cls-11" d="M1639,15a7,7,0,0,1,7,7V1058a7,7,0,0,1-7,7H281a7,7,0,0,1-7-7V22a7,7,0,0,1,7-7H1639m0-1H281a8,8,0,0,0-8,8V1058a8,8,0,0,0,8,8H1639a8,8,0,0,0,8-8V22a8,8,0,0,0-8-8Z" transform="translate(-273 -14)"/></g></svg>